# xmcd CD database file
#
# Track frame offsets:
#	200
#	15642
#	34955
#
# Disc length: 750 seconds
#
# Revision: 2
# Processed by: cddbd v1.4b41PL1 Copyright (c) Steve Scherf et al.
# Submitted via: Feurio! 1.50.2ß - http://www.feurio.com
#
DISCID=1c02ec03
DTITLE=Peter Gabriel - Solsbury Hill
DYEAR=1900
DGENRE=
TTITLE0=Solsbury Hill
TTITLE1=Moribund The Burgermeister
TTITLE2=Solsbury Hill Full Lenght Live Version
EXTD=
EXTT0=
EXTT1=
EXTT2=
PLAYORDER=
